<?xml version="1.0" encoding="UTF-8" standalone="no"?>
<svg
   inkscape:version="1.2.2 (1:1.2.2+202212051552+b0a8486541)"
   sodipodi:docname="bitmap-trace-symbolic.svg"
   viewBox="0 0 16 16"
   height="16"
   width="16"
   id="svg1"
   version="1.1"
   xmlns:inkscape="http://www.inkscape.org/namespaces/inkscape"
   xmlns:sodipodi="http://sodipodi.sourceforge.net/DTD/sodipodi-0.dtd"
   xmlns="http://www.w3.org/2000/svg"
   xmlns:svg="http://www.w3.org/2000/svg">
  <defs
     id="defs3885" />
  <sodipodi:namedview
     inkscape:document-rotation="0"
     inkscape:current-layer="svg1"
     inkscape:window-maximized="1"
     inkscape:window-y="27"
     inkscape:window-x="0"
     inkscape:window-height="1016"
     inkscape:window-width="1920"
     inkscape:cy="13.368738"
     inkscape:cx="-2.3422912"
     inkscape:zoom="22.627417"
     showgrid="true"
     id="namedview"
     guidetolerance="10"
     gridtolerance="10"
     objecttolerance="10"
     pagecolor="#ffffff"
     bordercolor="#999999"
     borderopacity="1"
     inkscape:pageshadow="0"
     inkscape:pageopacity="0"
     inkscape:pagecheckerboard="0"
     inkscape:showpageshadow="0"
     inkscape:deskcolor="#d1d1d1">
    <inkscape:grid
       id="grid"
       type="xygrid"
       spacingx="1"
       spacingy="1" />
  </sodipodi:namedview>
  <g
     id="g4650">
    <path
       id="rect2107"
       style="opacity:0;fill:#616161;fill-opacity:1;stroke-width:0.687"
       d="M 0,0 V 16 H 16 V 0 Z" />
    <path
       id="rect4496"
       style="fill:#05a2eb;fill-opacity:1;stroke-width:1;stroke-linecap:square;stroke-linejoin:round;paint-order:fill markers stroke"
       d="M 7,0 V 15.99998 H 8 V 0 Z"
       class="error" />
    <path
       id="rect4600"
       style="fill:#616161;fill-opacity:1;stroke-linecap:square;stroke-linejoin:round;paint-order:fill markers stroke"
       d="M 0,1 V 3 H 2 V 1 Z M 2,3 V 5 H 4 V 3 Z M 4,3 H 6 V 1 H 4 Z M 4,5 V 7 H 6 V 5 Z M 4,7 H 2 v 2 h 2 z m 0,2 v 2 H 6 V 9 Z m 0,2 H 2 v 2 h 2 z m 0,2 v 2 H 6 V 13 Z M 2,13 H 0 v 2 H 2 Z M 2,11 V 9 H 0 v 2 z M 2,7 V 5 H 0 v 2 z"
       class="base" />
    <path
       id="rect4622"
       style="fill:#616161;fill-opacity:1;stroke-linecap:square;stroke-linejoin:round;paint-order:fill markers stroke"
       d="m 9,1 v 14 h 6 V 1 Z"
       class="base" />
  </g>
</svg>
