<?xml version="1.0" encoding="UTF-8" standalone="no"?>
<svg
   version="1.1"
   viewBox="0 0 16 16"
   id="svg14"
   sodipodi:docname="bug-symbolic.svg"
   inkscape:version="1.1.2 (b8e25be833, 2022-02-05)"
   xmlns:inkscape="http://www.inkscape.org/namespaces/inkscape"
   xmlns:sodipodi="http://sodipodi.sourceforge.net/DTD/sodipodi-0.dtd"
   xmlns="http://www.w3.org/2000/svg"
   xmlns:svg="http://www.w3.org/2000/svg">
  <defs
     id="defs18" />
  <sodipodi:namedview
     id="namedview16"
     pagecolor="#ffffff"
     bordercolor="#000000"
     borderopacity="0.25"
     inkscape:pageshadow="2"
     inkscape:pageopacity="0.0"
     inkscape:pagecheckerboard="0"
     showgrid="false"
     inkscape:zoom="43.8125"
     inkscape:cx="3.4921541"
     inkscape:cy="8.2510699"
     inkscape:window-width="1857"
     inkscape:window-height="1177"
     inkscape:window-x="55"
     inkscape:window-y="-8"
     inkscape:window-maximized="1"
     inkscape:current-layer="svg14" />
  <path
     d="m3.4462 5.3231c.2051.00383.41334.028554.61914.0686.055368.010795.11004.022983.16541.035867-.20267.18665-.39071.38897-.56343.60626-.41508-.045618-.78142.006268-1.0896.17516-.3719.20406-.69575.59129-.91827 1.3253a.34826.34826 0 11-.66615-.20232c.25908-.8542.69471-1.4288 1.2505-1.7335.34753-.19048.7264-.27127 1.1154-.27545.029251-.0003483.057805-.0003483.087056 0zm9.4292.2939c.27928-.00139.55368.036912.8184.12606.70599.23888 1.2825.86012 1.5931 1.8849a.34826.34826 0 11-.66594.20232c-.26698-.88101-.668-1.2637-1.1503-1.4267-.315-.10621-.69074-.11039-1.0992-.034822-.15252-.21277-.31967-.41334-.49831-.60069.33499-.09228.67242-.14974 1.0022-.15113zm-10.446 2.9348c.019152 0 .037608.0006964.056761.00104-.0491.20685-.10795.43981-.14904.69889-.18038.00557-.34857.033778-.50284.085663-.48229.16297-.8831.54707-1.1502 1.4277a.34826.34826 0 11-.66615-.20232c.31062-1.0248.88728-1.6461 1.5931-1.8846.265-.089494.5394-.12745.81833-.12641zm11.142.29599c.27907-.00104.55361.036912.81833.12641.70599.23853 1.2836.85977 1.5942 1.8846a.34854.34854 0 11-.66706.20232c-.26698-.88066-.668-1.2648-1.1503-1.4277-.20855-.070341-.44423-.09611-.69753-.083574-.01229-.2361-.03716-.46871-.07508-.69645.0592-.00383.11854-.00522.17735-.00557zm-11.134 3.1274c.053278.22913.11944.45304.1971.67033-.45095.1762-.82564.56308-1.0795 1.4006a.34826.34826 0 11-.66615-.20232c.304-1.0029.86325-1.6189 1.5486-1.8686zm10.76.18526c.13254.02055.2634.05119.39182.09437.70599.23888 1.2825.86012 1.5931 1.8849a.34826.34826 0 11-.66595.20232c-.26698-.88101-.668-1.2637-1.1503-1.4267-.1186-.04005-.24675-.06477-.38082-.07696.08357-.21973.15426-.44608.21207-.678z"
     color="#000000"
     stroke-width=".034822"
     style="text-indent:0;text-transform:none"
     id="path2" />
  <path
     d="m 2.80082,10.0078 c 0.069364,3.06806 1.9454711,5.309914 3.94923,5.73244 L 7.4981,15.00196 C 7.33903,14.83576 7.2181563,12.662265 7.425834,10.15626 7.582823,8.2619049 7.9331986,6.2988665 8.193415,4.65434 4.9682655,5.0367429 2.7293812,6.8479681 2.80082,10.0078 Z M 8.8594,4.73243 c -0.2970391,1.952976 -0.5425485,3.6181948 -0.732422,5.44144 -0.2424094,2.327717 -0.085725,4.6924 0.072266,4.8516 0.32382,0.21518 0.63047,0.47771 0.93945,0.7207 2.573767,-1.277803 3.71631,-2.80711 3.8398,-5.20115 C 13.143543,7.3452877 10.935362,5.0591885 8.8594,4.73243 Z m -2.918,1.9102 c 0.5522847,0 1,0.4477153 1,1 0,0.5522847 -0.4477153,1 -1,1 -0.5522847,0 -1,-0.4477153 -1,-1 0,-0.5522847 0.4477153,-1 1,-1 z m 4.582,0.46484 c 0.552285,0 1,0.4477153 1,1 0,0.5522847 -0.447715,1 -1,1 -0.5522847,0 -1,-0.4477153 -1,-1 0,-0.5522847 0.4477153,-1 1,-1 z m -5.3203,4.1406 c 0.5522847,0 1,0.447715 1,1 0,0.552285 -0.4477153,1 -1,1 -0.5522847,0 -1,-0.447715 -1,-1 0,-0.552285 0.4477153,-1 1,-1 z m 4.7734,0.0293 c 0.552285,0 1,0.447715 1,1 0,0.552285 -0.447715,1 -1,1 -0.5522847,0 -1,-0.447715 -1,-1 0,-0.552285 0.4477153,-1 1,-1 z"
     stroke="#000"
     stroke-width="0.5"
     id="path4"
     style="stroke:none"
     sodipodi:nodetypes="sccscscsccscssssssssssssssssssss" />
  <path
     d="m8.3819 1.9585c1.5899 0 2.8805.96103 2.8805 2.1449 0 .30132-.05045.61991-.23505.84772-.01287.015887-.0274.031043-.04135.046794-.61086-.41265-1.3086-.68983-2.0589-.79005-.38723-.073764-.86419-.10301-1.2797-.11426h-.01415c-.76539.0077522-1.4634.17687-2.0817.4701-.039022-.14717-.050061-.30579-.050061-.46032 0-1.1838 1.2906-2.1449 2.8805-2.1449z"
     stroke="#000"
     stroke-linejoin="round"
     stroke-width=".020915"
     id="path6" />
  <g
     fill="none"
     stroke="#000000"
     stroke-linecap="round"
     stroke-width="0.52234"
     id="g12">
    <path
       d="m 9.2824,3.8699 c 0,0 1.3125,-4.7209 4.4904,-2.9073"
       id="path8" />
    <path
       d="m 7.5866,3.6488 c 0,0 -1.3821,-4.6861 -4.56,-2.8725"
       id="path10" />
  </g>
</svg>
