<?xml version="1.0" encoding="UTF-8" standalone="no"?>
<svg
   inkscape:version="1.2.2 (1:1.2.2+202212051552+b0a8486541)"
   sodipodi:docname="clone-original-symbolic.svg"
   viewBox="0 0 16 16"
   height="16"
   width="16"
   id="svg1"
   version="1.1"
   xmlns:inkscape="http://www.inkscape.org/namespaces/inkscape"
   xmlns:sodipodi="http://sodipodi.sourceforge.net/DTD/sodipodi-0.dtd"
   xmlns="http://www.w3.org/2000/svg"
   xmlns:svg="http://www.w3.org/2000/svg">
  <defs
     id="defs1033" />
  <sodipodi:namedview
     inkscape:current-layer="svg1"
     inkscape:window-maximized="1"
     inkscape:window-height="1016"
     inkscape:window-width="1920"
     inkscape:document-rotation="0"
     inkscape:window-y="27"
     inkscape:window-x="0"
     inkscape:cy="16.380657"
     inkscape:cx="-11.116761"
     inkscape:zoom="13.583094"
     showgrid="true"
     id="namedview"
     guidetolerance="10"
     gridtolerance="10"
     objecttolerance="10"
     pagecolor="#505050"
     bordercolor="#eeeeee"
     borderopacity="1"
     inkscape:showpageshadow="0"
     inkscape:pageopacity="0"
     inkscape:pagecheckerboard="0"
     inkscape:deskcolor="#505050">
    <inkscape:grid
       id="grid"
       type="xygrid" />
  </sodipodi:namedview>
  <path
     style="opacity:0;fill:none"
     d="M 0,0 H 16 V 16 H 0 Z"
     id="rect22048" />
  <path
     style="fill:#616161;fill-opacity:1"
     d="M 7.5209808,8.115469 A 3.3507042,3.3507042 0 0 1 4.1702766,11.466173 3.3507042,3.3507042 0 0 1 0.81957245,8.115469 3.3507042,3.3507042 0 0 1 4.1702766,4.7647648 3.3507042,3.3507042 0 0 1 7.5209808,8.115469"
     id="path9609" />
  <path
     class="error"
     d="M 14.962209,8.1754103 A 3.3507042,3.3507042 0 0 1 11.611505,11.526114 3.3507042,3.3507042 0 0 1 8.2608004,8.1754103 3.3507042,3.3507042 0 0 1 11.611505,4.8247061 3.3507042,3.3507042 0 0 1 14.962209,8.1754103 Z"
     id="path1028"
     style="fill:#05a2eb;fill-opacity:1" />
</svg>
