<?xml version="1.0" encoding="UTF-8" standalone="no"?>
<svg
   version="1.1"
   id="svg1"
   width="16"
   height="16"
   viewBox="0 0 16 16"
   sodipodi:docname="construct-grid-symbolic.svg"
   inkscape:version="1.2.2 (1:1.2.2+202212051552+b0a8486541)"
   xmlns:inkscape="http://www.inkscape.org/namespaces/inkscape"
   xmlns:sodipodi="http://sodipodi.sourceforge.net/DTD/sodipodi-0.dtd"
   xmlns="http://www.w3.org/2000/svg"
   xmlns:svg="http://www.w3.org/2000/svg">
  <defs
     id="defs1630" />
  <sodipodi:namedview
     objecttolerance="10"
     gridtolerance="10"
     guidetolerance="10"
     id="namedview"
     showgrid="true"
     inkscape:zoom="38.41879"
     inkscape:cx="-0.53359307"
     inkscape:cy="11.361628"
     inkscape:window-x="0"
     inkscape:window-y="27"
     inkscape:document-rotation="0"
     inkscape:window-width="1920"
     inkscape:window-height="1016"
     inkscape:window-maximized="1"
     inkscape:current-layer="svg1"
     pagecolor="#505050"
     bordercolor="#eeeeee"
     borderopacity="1"
     inkscape:showpageshadow="0"
     inkscape:pageopacity="0"
     inkscape:pagecheckerboard="0"
     inkscape:deskcolor="#505050">
    <inkscape:grid
       spacingy="1"
       spacingx="1"
       dotted="false"
       empspacing="5"
       type="xygrid"
       id="grid" />
  </sodipodi:namedview>
  <g
     id="g3097">
    <path
       id="rect261"
       style="fill:#616161;stroke-linecap:square;stroke-linejoin:round;paint-order:fill markers stroke"
       d="M 1,1 V 4 H 2 V 7 H 1 v 3 H 4 V 7 H 3 V 4 H 4 V 3 h 3 v 1 h 3 V 1 H 7 V 2 H 4 V 1 Z"
       class="base" />
    <path
       inkscape:connector-curvature="0"
       id="rect22048"
       d="M 0,0 H 16 V 16 H 0 Z"
       style="display:inline;opacity:0;fill:none" />
    <path
       id="path203"
       d="m 12,2 v 1 h 2 v 2 h 1 V 2 Z M 8,6 V 8 H 6 v 1 h 2 v 2 H 9 V 9 h 2 V 8 H 9 V 6 Z m 6,1 v 1 h -1 v 1 h 1 v 1 h 1 V 7 Z M 2,12 v 3 H 5 V 14 H 3 v -2 z m 12,0 v 2 h -2 v 1 h 3 v -3 z m -6,1 v 1 H 7 v 1 h 3 V 14 H 9 v -1 z"
       sodipodi:nodetypes="cccccccccccccccccccccccccccccccccccccccccccccccccccc"
       style="fill:#05a2eb;fill-opacity:1"
       class="error" />
  </g>
</svg>
