<?xml version="1.0" encoding="UTF-8" standalone="no"?>
<svg
   inkscape:version="1.2.2 (1:1.2.2+202212051552+b0a8486541)"
   sodipodi:docname="copy-rotate-symbolic.svg"
   viewBox="0 0 16 16"
   height="16"
   width="16"
   id="svg1"
   version="1.1"
   xmlns:inkscape="http://www.inkscape.org/namespaces/inkscape"
   xmlns:sodipodi="http://sodipodi.sourceforge.net/DTD/sodipodi-0.dtd"
   xmlns="http://www.w3.org/2000/svg"
   xmlns:svg="http://www.w3.org/2000/svg">
  <defs
     id="defs1721" />
  <sodipodi:namedview
     inkscape:current-layer="svg1"
     inkscape:window-maximized="1"
     inkscape:window-height="1016"
     inkscape:window-width="1920"
     inkscape:snap-global="false"
     inkscape:document-rotation="0"
     inkscape:window-y="27"
     inkscape:window-x="0"
     inkscape:cy="9.7448153"
     inkscape:cx="-9.5238444"
     inkscape:zoom="22.627417"
     showgrid="true"
     id="namedview"
     guidetolerance="10"
     gridtolerance="10"
     objecttolerance="10"
     pagecolor="#505050"
     bordercolor="#eeeeee"
     borderopacity="1"
     inkscape:showpageshadow="0"
     inkscape:pageopacity="0"
     inkscape:pagecheckerboard="0"
     inkscape:deskcolor="#505050">
    <inkscape:grid
       id="grid"
       type="xygrid"
       spacingx="0.66667"
       spacingy="0.66667" />
  </sodipodi:namedview>
  <g
     id="g2447">
    <path
       id="rect2391"
       style="opacity:0;fill:#616161;fill-opacity:1;stroke-width:0.1"
       d="M 0,0 V 16 H 16 V 0 Z" />
    <path
       id="rect2278"
       style="fill:#05a2eb;fill-opacity:1;stroke-width:0.1"
       d="m 7.6660156,6.6660156 v 1 h -1 v 0.6679688 h 1 v 1 h 0.6679688 v -1 h 1 V 7.6660156 h -1 v -1 z"
       class="error" />
    <path
       id="rect185"
       style="fill:#616161;fill-opacity:1;stroke-width:0.1"
       class="base"
       d="m 2.8144531,2.8144531 v 2.8281251 l 2.828125,-1e-7 v -2.828125 z m 7.5429689,0 v 2.8281247 l 2.828125,5e-7 V 2.8144529 Z M 2.6660156,6.0000001 0.66601561,8 l 1.99999999,2 2,-2 z m 10.6679684,-3e-7 -2,1.9999999 L 13.333985,10 15.333984,7.9999996 Z m -10.5195309,4.3574222 3e-7,2.828125 h 2.8281248 l 2e-7,-2.828125 z m 7.5429689,0 v 2.828125 h 2.828125 v -2.828125 z m -2.3574216,0.976563 -2,2 1.9999998,2 1.9999998,-2 z" />
    <path
       id="rect171"
       style="fill:#05a2eb;stroke-width:0.1"
       d="m 8,0.66667 -2,2 2,2 2,-2 z"
       class="error" />
  </g>
</svg>
