<?xml version="1.0" encoding="UTF-8" standalone="no"?>
<svg
   version="1.1"
   id="svg1"
   width="16"
   height="16"
   viewBox="0 0 16 16"
   sodipodi:docname="dialog-path-effects-symbolic.svg"
   inkscape:version="1.2.2 (b0a8486541, 2022-12-01)"
   xmlns:inkscape="http://www.inkscape.org/namespaces/inkscape"
   xmlns:sodipodi="http://sodipodi.sourceforge.net/DTD/sodipodi-0.dtd"
   xmlns="http://www.w3.org/2000/svg"
   xmlns:svg="http://www.w3.org/2000/svg"
   xmlns:rdf="http://www.w3.org/1999/02/22-rdf-syntax-ns#"
   xmlns:cc="http://creativecommons.org/ns#"
   xmlns:dc="http://purl.org/dc/elements/1.1/">
  <metadata
     id="metadata2046">
    <rdf:RDF>
      <cc:Work
         rdf:about="">
        <dc:format>image/svg+xml</dc:format>
        <dc:type
           rdf:resource="http://purl.org/dc/dcmitype/StillImage" />
      </cc:Work>
    </rdf:RDF>
  </metadata>
  <defs
     id="defs2044" />
  <style
     id="s0">
.success { fill:#009909; }
.warning { fill:#FF1990; }
.error { fill:#00AAFF; }
</style>
  <style
     id="s2">
@import '../../highlights.css';
</style>
  <sodipodi:namedview
     objecttolerance="10"
     gridtolerance="10"
     guidetolerance="10"
     id="namedview"
     showgrid="true"
     inkscape:zoom="23.460107"
     inkscape:cx="-7.0332161"
     inkscape:cy="13.043419"
     inkscape:window-width="1920"
     inkscape:window-height="1020"
     inkscape:window-x="0"
     inkscape:window-y="26"
     inkscape:window-maximized="1"
     inkscape:current-layer="svg1"
     inkscape:document-rotation="0"
     inkscape:snap-global="true"
     pagecolor="#505050"
     bordercolor="#eeeeee"
     borderopacity="1"
     inkscape:showpageshadow="0"
     inkscape:pageopacity="0"
     inkscape:pagecheckerboard="0"
     inkscape:deskcolor="#505050">
    <inkscape:grid
       type="xygrid"
       id="grid2175"
       spacingx="1"
       spacingy="1" />
  </sodipodi:namedview>
  <g
     id="g865">
    <path
       id="rect169"
       style="fill:#616161;opacity:0"
       d="M 0,0 H 16 V 16 H 0 Z" />
    <path
       id="rect193"
       style="fill:#616161;stroke-width:1"
       d="M 7 1 L 7 8 L 0 8 L 0 9 L 7 9 L 7 16 L 8 16 L 8 9 L 15 9 L 15 8 L 8 8 L 8 1 L 7 1 z "
       class="base" />
    <path
       id="path810"
       style="fill:#616161"
       d="M 5 2 L 5 6 L 1 6 L 1 7 L 6 7 L 6 2 L 5 2 z M 9 2 L 9 7 L 14 7 L 14 6 L 10 6 L 10 2 L 9 2 z M 1 10 L 1 11 L 5 11 L 5 15 L 6 15 L 6 10 L 1 10 z M 9 10 L 9 15 L 10 15 L 10 11 L 14 11 L 14 10 L 9 10 z "
       class="base" />
    <path
       id="rect222"
       style="fill:#05a2eb;fill-opacity:1"
       d="M 2 3 L 2 5 L 4 5 L 4 3 L 2 3 z M 11 3 L 11 5 L 13 5 L 13 3 L 11 3 z M 2 12 L 2 14 L 4 14 L 4 12 L 2 12 z M 11 12 L 11 14 L 13 14 L 13 12 L 11 12 z "
       class="error" />
  </g>
</svg>
