<?xml version="1.0" encoding="UTF-8" standalone="no"?>
<svg
   inkscape:version="1.2.2 (1:1.2.2+202212051552+b0a8486541)"
   sodipodi:docname="dialog-memory-symbolic.svg"
   viewBox="0 0 16 16"
   height="16"
   width="16"
   id="svg1"
   version="1.1"
   xmlns:inkscape="http://www.inkscape.org/namespaces/inkscape"
   xmlns:sodipodi="http://sodipodi.sourceforge.net/DTD/sodipodi-0.dtd"
   xmlns="http://www.w3.org/2000/svg"
   xmlns:svg="http://www.w3.org/2000/svg"
   xmlns:rdf="http://www.w3.org/1999/02/22-rdf-syntax-ns#"
   xmlns:cc="http://creativecommons.org/ns#"
   xmlns:dc="http://purl.org/dc/elements/1.1/">
  <metadata
     id="metadata3321">
    <rdf:RDF>
      <cc:Work
         rdf:about="">
        <dc:format>image/svg+xml</dc:format>
        <dc:type
           rdf:resource="http://purl.org/dc/dcmitype/StillImage" />
      </cc:Work>
    </rdf:RDF>
  </metadata>
  <defs
     id="defs3319" />
  <sodipodi:namedview
     inkscape:document-rotation="0"
     inkscape:current-layer="svg1"
     inkscape:window-maximized="1"
     inkscape:window-y="27"
     inkscape:window-x="0"
     inkscape:window-height="1016"
     inkscape:window-width="1920"
     inkscape:cy="16.515057"
     inkscape:cx="3.2232606"
     inkscape:zoom="15.046875"
     showgrid="true"
     id="namedview"
     guidetolerance="10"
     gridtolerance="10"
     objecttolerance="10"
     pagecolor="#505050"
     bordercolor="#eeeeee"
     borderopacity="1"
     inkscape:showpageshadow="0"
     inkscape:pageopacity="0"
     inkscape:pagecheckerboard="0"
     inkscape:deskcolor="#505050">
    <inkscape:grid
       id="grid"
       type="xygrid"
       spacingx="1"
       spacingy="1" />
  </sodipodi:namedview>
  <g
     id="g820">
    <path
       id="rect276"
       style="opacity:0;fill:#616161;stroke-width:0;stroke-linecap:square;stroke-linejoin:round;stroke-opacity:0.395955;paint-order:fill markers stroke"
       d="M 0,0 V 16 H 16 V 0 Z" />
    <path
       id="rect2555"
       style="fill:#616161;stroke-width:0.687"
       class="base"
       d="m 3,4 v 9 h 9 V 4 Z m 1,1 h 7 v 7 H 4 Z m 1,1 v 5 h 5 V 6 Z m 1,1 h 3 v 3 H 6 Z"
       sodipodi:nodetypes="cccccccccccccccccccc" />
    <path
       id="path2611"
       style="fill:#616161;stroke-width:0.687"
       class="base"
       d="M 4 1 L 4 3 L 5 3 L 5 1 L 4 1 z M 7 1 L 7 3 L 8 3 L 8 1 L 7 1 z M 10 1 L 10 3 L 11 3 L 11 1 L 10 1 z M 0 5 L 0 6 L 2 6 L 2 5 L 0 5 z M 13 5 L 13 6 L 15 6 L 15 5 L 13 5 z M 0 8 L 0 9 L 2 9 L 2 8 L 0 8 z M 13 8 L 13 9 L 15 9 L 15 8 L 13 8 z M 0 11 L 0 12 L 2 12 L 2 11 L 0 11 z M 13 11 L 13 12 L 15 12 L 15 11 L 13 11 z M 4 14 L 4 16 L 5 16 L 5 14 L 4 14 z M 7 14 L 7 16 L 8 16 L 8 14 L 7 14 z M 10 14 L 10 16 L 11 16 L 11 14 L 10 14 z " />
  </g>
</svg>
