<?xml version="1.0" encoding="UTF-8" standalone="no"?>
<svg
   inkscape:version="1.2.2 (1:1.2.2+202212051552+b0a8486541)"
   sodipodi:docname="dialog-icon-preview-symbolic.svg"
   viewBox="0 0 16 16"
   height="16"
   width="16"
   id="svg1"
   version="1.1"
   xmlns:inkscape="http://www.inkscape.org/namespaces/inkscape"
   xmlns:sodipodi="http://sodipodi.sourceforge.net/DTD/sodipodi-0.dtd"
   xmlns="http://www.w3.org/2000/svg"
   xmlns:svg="http://www.w3.org/2000/svg"
   xmlns:rdf="http://www.w3.org/1999/02/22-rdf-syntax-ns#"
   xmlns:cc="http://creativecommons.org/ns#"
   xmlns:dc="http://purl.org/dc/elements/1.1/">
  <metadata
     id="metadata6418">
    <rdf:RDF>
      <cc:Work
         rdf:about="">
        <dc:format>image/svg+xml</dc:format>
        <dc:type
           rdf:resource="http://purl.org/dc/dcmitype/StillImage" />
      </cc:Work>
    </rdf:RDF>
  </metadata>
  <defs
     id="defs6416" />
  <sodipodi:namedview
     inkscape:document-rotation="0"
     inkscape:current-layer="svg1"
     inkscape:window-maximized="1"
     inkscape:window-y="27"
     inkscape:window-x="0"
     inkscape:window-height="1016"
     inkscape:window-width="1920"
     inkscape:cy="7.046875"
     inkscape:cx="-0.625"
     inkscape:zoom="32"
     showgrid="true"
     id="namedview"
     guidetolerance="10"
     gridtolerance="10"
     objecttolerance="10"
     pagecolor="#ffffff"
     bordercolor="#999999"
     borderopacity="1"
     inkscape:pageshadow="0"
     inkscape:pageopacity="0"
     inkscape:pagecheckerboard="0"
     inkscape:showpageshadow="0"
     inkscape:deskcolor="#d1d1d1">
    <inkscape:grid
       id="grid"
       type="xygrid"
       spacingx="1"
       spacingy="1" />
  </sodipodi:namedview>
  <path
     id="rect1820"
     style="opacity:0;fill:#616161;fill-opacity:1;stroke-width:0.687"
     d="M 5e-8,0 V 16 H 16 V 0 Z" />
  <path
     id="rect744"
     style="fill:#05a2eb;stroke-linecap:square;stroke-linejoin:round;stroke-opacity:0.395955;paint-order:fill markers stroke;fill-opacity:1"
     d="M 7 1 L 7 8 L 0 8 L 0 9 L 7 9 L 7 16 L 8 16 L 8 9 L 15 9 L 15 8 L 8 8 L 8 1 L 7 1 z "
     class="error" />
  <path
     id="rect756"
     style="fill:#616161;stroke-linecap:square;stroke-linejoin:round;stroke-opacity:0.395955;paint-order:fill markers stroke"
     d="M 1 2 L 1 7 L 6 7 L 6 2 L 1 2 z M 9 2 L 9 7 L 14 7 L 14 2 L 9 2 z M 2 3 L 5 3 L 5 6 L 2 6 L 2 3 z M 10 3 L 13 3 L 13 6 L 10 6 L 10 3 z M 1 10 L 1 15 L 6 15 L 6 10 L 1 10 z M 9 10 L 9 15 L 14 15 L 14 10 L 9 10 z M 2 11 L 5 11 L 5 14 L 2 14 L 2 11 z M 10 11 L 13 11 L 13 14 L 10 14 L 10 11 z "
     class="base" />
</svg>
