<?xml version="1.0" encoding="UTF-8" standalone="no"?>
<svg
   inkscape:version="1.2.2 (b0a8486541, 2022-12-01)"
   sodipodi:docname="distribute-remove-overlaps-symbolic.svg"
   viewBox="0 0 16 16"
   height="16"
   width="16"
   id="svg1"
   version="1.1"
   xmlns:inkscape="http://www.inkscape.org/namespaces/inkscape"
   xmlns:sodipodi="http://sodipodi.sourceforge.net/DTD/sodipodi-0.dtd"
   xmlns="http://www.w3.org/2000/svg"
   xmlns:svg="http://www.w3.org/2000/svg">
  <defs
     id="defs11" />
  <sodipodi:namedview
     inkscape:document-rotation="0"
     inkscape:current-layer="svg1"
     inkscape:window-maximized="1"
     inkscape:window-y="26"
     inkscape:window-x="0"
     inkscape:window-height="1030"
     inkscape:window-width="1920"
     inkscape:cy="12.494074"
     inkscape:cx="-0.63559971"
     inkscape:zoom="27.533052"
     showgrid="true"
     id="namedview"
     guidetolerance="10"
     gridtolerance="10"
     objecttolerance="10"
     pagecolor="#ffffff"
     bordercolor="#eeeeee"
     borderopacity="1"
     inkscape:showpageshadow="0"
     inkscape:pageopacity="1"
     inkscape:pagecheckerboard="0"
     inkscape:deskcolor="#505050">
    <inkscape:grid
       originy="0"
       originx="0"
       empopacity="0.54509804"
       empcolor="#32ef79"
       opacity="0.15686275"
       color="#25e27c"
       dotted="false"
       id="grid"
       type="xygrid"
       spacingx="1"
       spacingy="1" />
  </sodipodi:namedview>
  <g
     id="g710">
    <path
       id="rect367"
       style="opacity:0;fill:#616161;stroke-width:0;stroke-linecap:square;stroke-linejoin:round;stroke-opacity:0.395955;paint-order:fill markers stroke"
       d="M 0,0 H 16 V 16 H 0 Z" />
    <path
       id="rect301"
       style="fill:#616161;stroke-width:0;stroke-linecap:square;stroke-linejoin:round;stroke-opacity:0.395955;paint-order:fill markers stroke"
       d="M 0,1.0000006 V 13 l 4,-2e-6 v 3.000001 L 16,16 V 4.0000011 l -4,10e-7 V 1.0000006 Z m 1.0000003,1.0000005 9.9999997,0 v 2.000001 L 4,4 v 7.999997 l -2.9999997,2e-6 z m 4,2.9999928 L 11,4.999996 v 1.0000005 l -5.9999997,-2.1e-6 z M 12,4.999996 l 2.999999,-1e-6 V 15 l -9.9999987,-10e-7 V 12.999998 L 12,13 Z M 5.0000003,6.9999949 11,6.999997 v 1.0000005 l -5.9999997,-2.1e-6 z m 0,2.000001 L 11,8.999998 v 1.0000005 l -5.9999997,-2.1e-6 z m 0,2.0000011 5.9999997,2e-6 v 1 l -5.9999997,-2e-6 z"
       sodipodi:nodetypes="ccccccccccccccccccccccccccccccccccccccccccc" />
  </g>
</svg>
