<?xml version="1.0" encoding="UTF-8" standalone="no"?>
<svg
   version="1.1"
   id="svg1"
   width="16"
   height="16"
   viewBox="0 0 16 16"
   sodipodi:docname="edit-clone-link-lpe-symbolic.svg"
   inkscape:version="1.2.2 (1:1.2.2+202212051552+b0a8486541)"
   xmlns:inkscape="http://www.inkscape.org/namespaces/inkscape"
   xmlns:sodipodi="http://sodipodi.sourceforge.net/DTD/sodipodi-0.dtd"
   xmlns="http://www.w3.org/2000/svg"
   xmlns:svg="http://www.w3.org/2000/svg">
  <defs
     id="defs3243" />
  <sodipodi:namedview
     inkscape:snap-global="true"
     inkscape:snap-midpoints="true"
     inkscape:snap-smooth-nodes="true"
     inkscape:snap-intersection-paths="true"
     inkscape:object-paths="true"
     objecttolerance="10"
     gridtolerance="10"
     guidetolerance="10"
     id="namedview"
     showgrid="true"
     inkscape:zoom="14.539883"
     inkscape:cx="-16.437546"
     inkscape:cy="15.440289"
     inkscape:window-width="1920"
     inkscape:window-height="1016"
     inkscape:window-x="0"
     inkscape:window-y="27"
     inkscape:window-maximized="1"
     inkscape:current-layer="svg1"
     inkscape:document-rotation="0"
     pagecolor="#505050"
     bordercolor="#eeeeee"
     borderopacity="1"
     inkscape:showpageshadow="0"
     inkscape:pageopacity="0"
     inkscape:pagecheckerboard="0"
     inkscape:deskcolor="#505050">
    <inkscape:grid
       type="xygrid"
       id="grid"
       spacingx="1"
       spacingy="1" />
  </sodipodi:namedview>
  <g
     id="g373">
    <path
       id="rect265"
       style="fill:#05a2eb;stroke-width:0;stroke-linecap:square;stroke-linejoin:round;stroke-opacity:0.395955;paint-order:fill markers stroke"
       d="M 10 4 L 10 6 L 11 6 L 11 4 L 10 4 z M 11 6 L 11 8 L 13 8 L 13 7 L 12 7 L 12 6 L 11 6 z M 13 8 L 13 9 L 15 9 L 15 8 L 13 8 z M 13 9 L 11 9 L 11 11 L 12 11 L 12 10 L 13 10 L 13 9 z M 11 11 L 10 11 L 10 13 L 11 13 L 11 11 z M 10 11 L 10 9 L 8 9 L 8 10 L 9 10 L 9 11 L 10 11 z M 8 9 L 8 8 L 6 8 L 6 9 L 8 9 z M 8 8 L 10 8 L 10 6 L 9 6 L 9 7 L 8 7 L 8 8 z "
       class="error" />
    <path
       id="rect5986-3"
       style="opacity:0;fill:#616161;stroke-width:0.687"
       d="M 0,0 V 16 H 16 V 0 Z" />
    <path
       id="rect1460-6"
       style="fill:#616161;stroke-width:0.687"
       d="M 0,1.00001 V 15.999406 L 13,16 v -3 h -1 v 2 H 0.9987216 V 2 H 12 v 2 h 1 V 1 Z"
       sodipodi:nodetypes="ccccccccccccc"
       class="base" />
  </g>
</svg>
