<?xml version="1.0" encoding="UTF-8" standalone="no"?>
<svg
   inkscape:version="1.2.2 (1:1.2.2+202212051552+b0a8486541)"
   sodipodi:docname="edit-select-same-fill-symbolic.svg"
   viewBox="0 0 16 16"
   height="16"
   width="16"
   id="svg1"
   version="1.1"
   xmlns:inkscape="http://www.inkscape.org/namespaces/inkscape"
   xmlns:sodipodi="http://sodipodi.sourceforge.net/DTD/sodipodi-0.dtd"
   xmlns="http://www.w3.org/2000/svg"
   xmlns:svg="http://www.w3.org/2000/svg">
  <defs
     id="defs8334" />
  <sodipodi:namedview
     inkscape:document-rotation="0"
     inkscape:current-layer="svg1"
     inkscape:window-maximized="1"
     inkscape:window-y="27"
     inkscape:window-x="0"
     inkscape:window-height="1016"
     inkscape:window-width="1920"
     inkscape:cy="9.1644478"
     inkscape:cx="0.27510537"
     inkscape:zoom="29.079766"
     showgrid="true"
     id="namedview"
     guidetolerance="10"
     gridtolerance="10"
     objecttolerance="10"
     pagecolor="#505050"
     bordercolor="#eeeeee"
     borderopacity="1"
     inkscape:showpageshadow="0"
     inkscape:pageopacity="0"
     inkscape:pagecheckerboard="0"
     inkscape:deskcolor="#505050">
    <inkscape:grid
       id="grid"
       type="xygrid" />
  </sodipodi:namedview>
  <g
     id="g260">
    <path
       inkscape:connector-curvature="0"
       id="rect55443"
       d="M 0,0 H 16 V 16 H 0 Z"
       style="opacity:0" />
    <path
       id="rect2656"
       style="opacity:0.999;fill:#05a2eb;fill-opacity:1;stroke:none;stroke-width:0.83152;stroke-linejoin:round;paint-order:stroke fill markers"
       class="error"
       d="M 3.0000002,3.0000002 V 13 H 13 V 3.0000002 Z"
       sodipodi:nodetypes="ccccc" />
    <path
       id="path2007"
       style="fill:#616161;fill-opacity:1;stroke-width:1"
       class="base"
       d="M 0,0 V 3 H 1 V 1 H 3 V 0 Z m 6,0 v 1 h 4 V 0 Z m 7,0 v 1 h 2 v 2 h 1 V 0 Z M 0,6 v 4 H 1 V 6 Z m 15,0 v 4 h 1 V 6 Z M 0,13 v 3 H 3 V 15 H 1 v -2 z m 15,0 v 2 h -2 v 1 h 3 v -3 z m -9,2 v 1 h 4 v -1 z"
       sodipodi:nodetypes="cccccccccccccccccccccccccccccccccccccccccccccccc" />
  </g>
</svg>
