<?xml version="1.0" encoding="UTF-8" standalone="no"?>
<svg
   version="1.1"
   id="svg1"
   width="16"
   height="16"
   viewBox="0 0 16 16"
   sodipodi:docname="edit-select-same-stroke-style-symbolic.svg"
   inkscape:version="1.2.2 (1:1.2.2+202212051552+b0a8486541)"
   xmlns:inkscape="http://www.inkscape.org/namespaces/inkscape"
   xmlns:sodipodi="http://sodipodi.sourceforge.net/DTD/sodipodi-0.dtd"
   xmlns="http://www.w3.org/2000/svg"
   xmlns:svg="http://www.w3.org/2000/svg">
  <defs
     id="defs8334" />
  <sodipodi:namedview
     objecttolerance="10"
     gridtolerance="10"
     guidetolerance="10"
     id="namedview"
     showgrid="true"
     inkscape:zoom="29.079766"
     inkscape:cx="-2.5447247"
     inkscape:cy="10.987021"
     inkscape:window-width="1920"
     inkscape:window-height="1016"
     inkscape:window-x="0"
     inkscape:window-y="27"
     inkscape:window-maximized="1"
     inkscape:current-layer="svg1"
     inkscape:document-rotation="0"
     pagecolor="#505050"
     bordercolor="#eeeeee"
     borderopacity="1"
     inkscape:showpageshadow="0"
     inkscape:pageopacity="0"
     inkscape:pagecheckerboard="0"
     inkscape:deskcolor="#505050">
    <inkscape:grid
       type="xygrid"
       id="grid" />
  </sodipodi:namedview>
  <g
     id="g362">
    <path
       inkscape:connector-curvature="0"
       id="rect55443"
       d="M 0,0 H 16 V 16 H 0 Z"
       style="opacity:0" />
    <path
       id="rect2724"
       style="opacity:0.999;fill:#05a2eb;fill-opacity:1;stroke:none;stroke-width:0.831519;stroke-linejoin:round;paint-order:stroke fill markers"
       class="error"
       d="M 9 3 L 9 4 L 12 4 L 12 7 L 13 7 L 13 3 L 9 3 z M 3 9 L 3 13 L 7 13 L 7 12 L 4 12 L 4 9 L 3 9 z " />
    <path
       id="path2007"
       style="fill:#616161;fill-opacity:1;stroke-width:1"
       class="base"
       d="M 0,0 V 3 H 1 V 1 H 3 V 0 Z m 6,0 v 1 h 4 V 0 Z m 7,0 v 1 h 2 v 2 h 1 V 0 Z M 0,6 v 4 H 1 V 6 Z m 15,0 v 4 h 1 V 6 Z M 0,13 v 3 H 3 V 15 H 1 v -2 z m 15,0 v 2 h -2 v 1 h 3 v -3 z m -9,2 v 1 h 4 v -1 z"
       sodipodi:nodetypes="cccccccccccccccccccccccccccccccccccccccccccccccc" />
    <path
       id="path324"
       style="opacity:0.999;fill:#616161;fill-opacity:1;stroke:none;stroke-width:0.831519;stroke-linejoin:round;paint-order:stroke fill markers"
       class="base"
       d="M 3 3 L 3 7 L 4 7 L 4 4 L 7 4 L 7 3 L 3 3 z M 12 9 L 12 12 L 9 12 L 9 13 L 13 13 L 13 9 L 12 9 z " />
  </g>
</svg>
