<?xml version="1.0" encoding="UTF-8" standalone="no"?>
<svg
   version="1.1"
   id="svg1"
   width="16"
   height="16"
   viewBox="0 0 16 16"
   sodipodi:docname="edit-select-all-layers-symbolic.svg"
   inkscape:version="1.2.2 (1:1.2.2+202212051552+b0a8486541)"
   xmlns:inkscape="http://www.inkscape.org/namespaces/inkscape"
   xmlns:sodipodi="http://sodipodi.sourceforge.net/DTD/sodipodi-0.dtd"
   xmlns="http://www.w3.org/2000/svg"
   xmlns:svg="http://www.w3.org/2000/svg">
  <defs
     id="defs9100">
    <inkscape:path-effect
       effect="join_type"
       id="path-effect841"
       is_visible="true"
       lpeversion="1"
       linecap_type="butt"
       line_width="0.7"
       linejoin_type="extrp_arc"
       miter_limit="100"
       attempt_force_join="true" />
  </defs>
  <sodipodi:namedview
     objecttolerance="10"
     gridtolerance="10"
     guidetolerance="10"
     id="namedview"
     showgrid="true"
     inkscape:zoom="29.375"
     inkscape:cx="-2.3829787"
     inkscape:cy="11.217021"
     inkscape:window-width="1920"
     inkscape:window-height="1016"
     inkscape:window-x="0"
     inkscape:window-y="27"
     inkscape:window-maximized="1"
     inkscape:current-layer="svg1"
     inkscape:document-rotation="0"
     pagecolor="#505050"
     bordercolor="#eeeeee"
     borderopacity="1"
     inkscape:showpageshadow="0"
     inkscape:pageopacity="0"
     inkscape:pagecheckerboard="0"
     inkscape:deskcolor="#505050">
    <inkscape:grid
       type="xygrid"
       id="grid"
       spacingx="1"
       spacingy="1" />
  </sodipodi:namedview>
  <g
     id="g999">
    <path
       id="rect4868"
       style="opacity:0;fill:#616161;fill-opacity:1;stroke-width:0.687"
       d="M 0,0 V 16 H 16 V 0 Z" />
    <path
       id="rect2635"
       style="fill:#05a2eb;fill-opacity:1;stroke-width:0.687"
       d="M 3,3 V 5 H 13 V 3 Z"
       class="error"
       sodipodi:nodetypes="ccccc" />
    <path
       id="path805"
       style="fill:#616161;fill-opacity:1;stroke-width:0.687"
       class="base"
       d="M 3,7 V 9 H 13 V 7 Z m 0,4 v 2 h 10 v -2 z"
       sodipodi:nodetypes="cccccccccc" />
    <path
       id="path2007"
       style="fill:#616161;fill-opacity:1;stroke-width:1"
       class="base"
       d="M 0,0 V 3 H 1 V 1 H 3 V 0 Z m 6,0 v 1 h 4 V 0 Z m 7,0 v 1 h 2 v 2 h 1 V 0 Z M 0,6 v 4 H 1 V 6 Z m 15,0 v 4 h 1 V 6 Z M 0,13 v 3 H 3 V 15 H 1 v -2 z m 15,0 v 2 h -2 v 1 h 3 v -3 z m -9,2 v 1 h 4 v -1 z"
       sodipodi:nodetypes="cccccccccccccccccccccccccccccccccccccccccccccccc" />
  </g>
</svg>
