<?xml version="1.0" encoding="UTF-8" standalone="no"?>
<svg
   inkscape:version="1.2.2 (1:1.2.2+202212051552+b0a8486541)"
   sodipodi:docname="layer-rename-symbolic.svg"
   viewBox="0 0 16 16"
   height="16"
   width="16"
   id="svg1"
   version="1.1"
   xmlns:inkscape="http://www.inkscape.org/namespaces/inkscape"
   xmlns:sodipodi="http://sodipodi.sourceforge.net/DTD/sodipodi-0.dtd"
   xmlns="http://www.w3.org/2000/svg"
   xmlns:svg="http://www.w3.org/2000/svg">
  <defs
     id="defs7502" />
  <sodipodi:namedview
     inkscape:document-rotation="0"
     inkscape:current-layer="svg1"
     inkscape:window-maximized="1"
     inkscape:window-y="27"
     inkscape:window-x="0"
     inkscape:window-height="1016"
     inkscape:window-width="1920"
     inkscape:cy="9.4857958"
     inkscape:cx="2.1576036"
     inkscape:zoom="39.16382"
     showgrid="true"
     id="namedview"
     guidetolerance="10"
     gridtolerance="10"
     objecttolerance="10"
     pagecolor="#ffffff"
     bordercolor="#999999"
     borderopacity="1"
     inkscape:pageshadow="0"
     inkscape:pageopacity="0"
     inkscape:pagecheckerboard="0"
     inkscape:snap-smooth-nodes="true"
     inkscape:showpageshadow="0"
     inkscape:deskcolor="#d1d1d1">
    <inkscape:grid
       id="grid"
       type="xygrid"
       spacingx="1"
       spacingy="1" />
  </sodipodi:namedview>
  <g
     id="g202">
    <path
       id="rect212"
       style="opacity:0;fill:#616161;stroke-width:0.1"
       d="M 0,0 V 16 H 16 V 0 Z" />
    <path
       id="rect166"
       style="fill:#616161;stroke-width:0;stroke-linecap:square;stroke-linejoin:round;stroke-opacity:0.395955;paint-order:fill markers stroke"
       class="base"
       d="M 1 5 L 1 11 L 7 11 L 7 10 L 2 10 L 2 6 L 7 6 L 7 5 L 1 5 z M 12 5 L 12 6 L 14 6 L 14 10 L 12 10 L 12 11 L 15 11 L 15 5 L 12 5 z " />
    <path
       id="rect170"
       style="fill:#05a2eb;fill-opacity:1;stroke-width:0.1"
       d="M 6,2 V 3 H 9 L 8,2 Z m 3,1 v 10 h 1 V 3 Z m 1,0 h 3 V 2 h -2 z m 0,10 1,1 h 2 V 13 Z M 9,13 H 6 v 1 h 2 z"
       sodipodi:nodetypes="ccccccccccccccccccccccccc"
       class="error" />
  </g>
</svg>
