<?xml version="1.0" encoding="UTF-8" standalone="no"?>
<svg
   inkscape:version="1.2.2 (1:1.2.2+202212051552+b0a8486541)"
   sodipodi:docname="node-type-auto-smooth-symbolic.svg"
   viewBox="0 0 16 16"
   height="16"
   width="16"
   id="svg1"
   version="1.1"
   xmlns:inkscape="http://www.inkscape.org/namespaces/inkscape"
   xmlns:sodipodi="http://sodipodi.sourceforge.net/DTD/sodipodi-0.dtd"
   xmlns="http://www.w3.org/2000/svg"
   xmlns:svg="http://www.w3.org/2000/svg">
  <defs
     id="defs2050">
    <inkscape:path-effect
       effect="join_type"
       id="path-effect851"
       is_visible="true"
       lpeversion="1"
       linecap_type="round"
       line_width="0.87"
       linejoin_type="extrp_arc"
       miter_limit="100"
       attempt_force_join="true" />
  </defs>
  <sodipodi:namedview
     inkscape:document-rotation="0"
     inkscape:current-layer="svg1"
     inkscape:window-maximized="1"
     inkscape:window-y="27"
     inkscape:window-x="0"
     inkscape:window-height="1016"
     inkscape:window-width="1920"
     inkscape:cy="10.177832"
     inkscape:cx="-7.0403048"
     inkscape:zoom="19.601424"
     showgrid="true"
     id="namedview"
     guidetolerance="10"
     gridtolerance="10"
     objecttolerance="10"
     inkscape:snap-bbox="true"
     inkscape:bbox-paths="true"
     pagecolor="#505050"
     bordercolor="#eeeeee"
     borderopacity="1"
     inkscape:showpageshadow="0"
     inkscape:pageopacity="0"
     inkscape:pagecheckerboard="0"
     inkscape:deskcolor="#505050">
    <inkscape:grid
       id="grid"
       type="xygrid"
       spacingx="1"
       spacingy="1" />
  </sodipodi:namedview>
  <g
     id="g295">
    <path
       id="rect4472"
       style="opacity:0;fill:#616161;stroke-width:0.687"
       d="M -3e-6,0 V 16 H 16.000003 V 0 Z" />
    <path
       id="path3111"
       style="fill:#616161;fill-opacity:1;stroke-width:0;stroke-linecap:square;stroke-linejoin:round;stroke-opacity:0.395955;paint-order:fill markers stroke"
       d="m 0,2 v 3 c 0,4.418278 3.581722,8 8,8 4.418278,0 8,-3.581722 8,-8 V 2 H 15 V 5 C 15,8.8659932 11.865993,12 8,12 4.1340068,12 1,8.8659932 1,5 V 2 Z"
       sodipodi:nodetypes="csssccssscc"
       class="base" />
    <path
       id="path206"
       style="fill:#00aaff;stroke-width:0;stroke-linecap:square;stroke-linejoin:round;stroke-opacity:0.395955;paint-order:fill markers stroke"
       d="M 8 10.333984 A 2.3333449 2.3333449 0 0 0 5.6660156 12.666016 A 2.3333449 2.3333449 0 0 0 8 15 A 2.3333449 2.3333449 0 0 0 10.333984 12.666016 A 2.3333449 2.3333449 0 0 0 8 10.333984 z "
       class="error" />
  </g>
</svg>
