<?xml version="1.0" encoding="UTF-8" standalone="no"?>
<svg
   inkscape:version="1.2.2 (1:1.2.2+202212051552+b0a8486541)"
   sodipodi:docname="object-visible-symbolic.svg"
   viewBox="0 0 16 16"
   height="16"
   width="16"
   id="svg1"
   version="1.1"
   xmlns:inkscape="http://www.inkscape.org/namespaces/inkscape"
   xmlns:sodipodi="http://sodipodi.sourceforge.net/DTD/sodipodi-0.dtd"
   xmlns="http://www.w3.org/2000/svg"
   xmlns:svg="http://www.w3.org/2000/svg">
  <defs
     id="defs6970" />
  <sodipodi:namedview
     inkscape:document-rotation="0"
     inkscape:current-layer="svg1"
     inkscape:window-maximized="1"
     inkscape:window-y="27"
     inkscape:window-x="0"
     inkscape:window-height="1016"
     inkscape:window-width="1920"
     inkscape:cy="14.360335"
     inkscape:cx="-11.953424"
     inkscape:zoom="18.488426"
     showgrid="true"
     id="namedview"
     guidetolerance="10"
     gridtolerance="10"
     objecttolerance="10"
     inkscape:object-paths="true"
     inkscape:snap-smooth-nodes="true"
     pagecolor="#ffffff"
     bordercolor="#999999"
     borderopacity="1"
     inkscape:pageshadow="0"
     inkscape:pageopacity="0"
     inkscape:pagecheckerboard="0"
     inkscape:showpageshadow="0"
     inkscape:deskcolor="#d1d1d1">
    <inkscape:grid
       id="grid"
       type="xygrid"
       spacingx="1"
       spacingy="1" />
  </sodipodi:namedview>
  <g
     id="g2543">
    <rect
       style="display:inline;opacity:0;fill:#616161"
       id="rect2902"
       width="16.00008"
       height="16.00008"
       x="-4.0054321e-05"
       y="-4.0054321e-05" />
    <path
       id="path1217"
       style="fill:#616161;stroke-linecap:square;stroke-linejoin:round;paint-order:fill markers stroke"
       d="m 8,3 a 7,7 0 0 0 -7,7 h 1 a 6,6 0 0 1 6,-6 6,6 0 0 1 6,6 h 1 A 7,7 0 0 0 8,3 Z"
       class="base" />
    <path
       id="path1225"
       style="fill:#616161;stroke-linecap:square;stroke-linejoin:round;paint-order:fill markers stroke"
       d="M 8,7 A 3,3 0 0 0 5,10 3,3 0 0 0 8,13 3,3 0 0 0 11,10 3,3 0 0 0 8,7 Z M 8,8 A 2,2 0 0 1 10,10 2,2 0 0 1 8,12 2,2 0 0 1 6,10 2,2 0 0 1 8,8 Z"
       class="base" />
  </g>
</svg>
