<?xml version="1.0" encoding="UTF-8" standalone="no"?>
<svg
   inkscape:version="1.2.2 (1:1.2.2+202212051552+b0a8486541)"
   sodipodi:docname="object-tweak-shrink-symbolic.svg"
   viewBox="0 0 16 16"
   height="16"
   width="16"
   id="svg1"
   version="1.1"
   xmlns:inkscape="http://www.inkscape.org/namespaces/inkscape"
   xmlns:sodipodi="http://sodipodi.sourceforge.net/DTD/sodipodi-0.dtd"
   xmlns="http://www.w3.org/2000/svg"
   xmlns:svg="http://www.w3.org/2000/svg">
  <defs
     id="defs3194">
    <inkscape:path-effect
       effect="join_type"
       id="path-effect881"
       is_visible="true"
       lpeversion="1"
       linecap_type="round"
       line_width="1.33"
       linejoin_type="extrp_arc"
       miter_limit="100"
       attempt_force_join="true" />
    <inkscape:path-effect
       effect="spiro"
       id="path-effect879"
       is_visible="true"
       lpeversion="1" />
    <inkscape:path-effect
       effect="spiro"
       id="path-effect875"
       is_visible="true"
       lpeversion="1" />
  </defs>
  <sodipodi:namedview
     inkscape:document-rotation="0"
     inkscape:current-layer="svg1"
     inkscape:window-maximized="1"
     inkscape:window-y="27"
     inkscape:window-x="0"
     inkscape:window-height="1016"
     inkscape:window-width="1920"
     inkscape:cy="15.831644"
     inkscape:cx="-21.264487"
     inkscape:zoom="11.780205"
     showgrid="true"
     id="namedview"
     guidetolerance="10"
     gridtolerance="10"
     objecttolerance="10"
     inkscape:snap-bbox="false"
     inkscape:object-paths="false"
     inkscape:snap-intersection-paths="false"
     inkscape:snap-smooth-nodes="true"
     inkscape:snap-global="false"
     pagecolor="#505050"
     bordercolor="#eeeeee"
     borderopacity="1"
     inkscape:showpageshadow="0"
     inkscape:pageopacity="0"
     inkscape:pagecheckerboard="0"
     inkscape:deskcolor="#505050">
    <inkscape:grid
       id="grid"
       type="xygrid"
       spacingx="1"
       spacingy="1" />
  </sodipodi:namedview>
  <g
     id="g278">
    <path
       id="rect3783"
       style="opacity:0;fill:#616161;fill-rule:evenodd;stroke-linecap:square;stroke-linejoin:round;paint-order:fill markers stroke;stop-color:#000000"
       d="M 0,0 H 16 V 16 H 0 Z" />
    <path
       id="path945-3"
       style="fill:#00aaff"
       class="error"
       d="M 3,1 2,1 2,3 0,3 0,4 3,4 Z m 12,3 0,-1 -2,0 0,-2 -1,0 0,3 z M 0,13 v 1 h 2 v 2 h 1 v -3 z m 12,3 1,0 0,-2 2,0 v -1 l -3,0 z"
       sodipodi:nodetypes="cccccccccccccccccccccccccccc" />
    <path
       id="rect238"
       style="fill:#616161;fill-rule:evenodd;stroke-width:0.999996;stroke-linecap:square;stroke-linejoin:round;-inkscape-stroke:none;paint-order:fill markers stroke;stop-color:#000000"
       d="M 6 5 A 2 2 0 0 0 4 7 A 2 2 0 0 0 6 9 L 9 9 A 1 1 0 0 1 10 10 A 1 1 0 0 1 9 11 L 5 11 L 5 12 L 9 12 A 2 2 0 0 0 11 10 A 2 2 0 0 0 9 8 L 6 8 A 1 1 0 0 1 5 7 A 1 1 0 0 1 6 6 L 10 6 L 10 5 L 6 5 z "
       class="base" />
  </g>
</svg>
