<?xml version="1.0" encoding="UTF-8" standalone="no"?>
<svg
   inkscape:version="1.2.2 (1:1.2.2+202212051552+b0a8486541)"
   sodipodi:docname="object-tweak-push-symbolic.svg"
   viewBox="0 0 16 16"
   height="16"
   width="16"
   id="svg1"
   version="1.1"
   xmlns:inkscape="http://www.inkscape.org/namespaces/inkscape"
   xmlns:sodipodi="http://sodipodi.sourceforge.net/DTD/sodipodi-0.dtd"
   xmlns="http://www.w3.org/2000/svg"
   xmlns:svg="http://www.w3.org/2000/svg">
  <defs
     id="defs1959" />
  <sodipodi:namedview
     inkscape:document-rotation="0"
     inkscape:current-layer="svg1"
     inkscape:window-maximized="1"
     inkscape:window-y="27"
     inkscape:window-x="0"
     inkscape:window-height="1016"
     inkscape:window-width="1920"
     inkscape:cy="12.396466"
     inkscape:cx="-6.7175144"
     inkscape:zoom="22.627417"
     showgrid="true"
     id="namedview"
     guidetolerance="10"
     gridtolerance="10"
     objecttolerance="10"
     pagecolor="#505050"
     bordercolor="#eeeeee"
     borderopacity="1"
     inkscape:showpageshadow="0"
     inkscape:pageopacity="0"
     inkscape:pagecheckerboard="0"
     inkscape:deskcolor="#505050">
    <inkscape:grid
       id="grid"
       type="xygrid"
       spacingx="1"
       spacingy="1" />
  </sodipodi:namedview>
  <g
     id="g3789">
    <path
       id="rect3783"
       style="opacity:0;fill:#616161;fill-rule:evenodd;stroke-linecap:square;stroke-linejoin:round;paint-order:fill markers stroke;stop-color:#000000"
       d="M 0,0 H 16 V 16 H 0 Z" />
    <path
       id="rect927"
       style="opacity:1;fill:#616161;fill-opacity:1;stroke-width:1"
       class="base"
       d="m 4,5 v 7 H 5 V 6.4140625 l 2.5,2.5 2.5,-2.5 V 12 h 1 V 5 H 10 L 7.5,7.5 5,5 Z"
       sodipodi:nodetypes="ccccccccccccc" />
    <path
       id="path945"
       style="fill:#00aaff;opacity:1"
       class="error"
       d="M 0 1 L 0 2 L 2 2 L 2 4 L 3 4 L 3 1 L 0 1 z M 12 1 L 12 2 L 14 2 L 14 4 L 15 4 L 15 1 L 12 1 z M 0 13 L 0 14 L 2 14 L 2 16 L 3 16 L 3 13 L 0 13 z M 12 13 L 12 14 L 14 14 L 14 16 L 15 16 L 15 13 L 12 13 z " />
  </g>
</svg>
