<?xml version="1.0" encoding="UTF-8" standalone="no"?>
<svg
   inkscape:version="1.2.2 (1:1.2.2+202212051552+b0a8486541)"
   sodipodi:docname="object-hidden-symbolic.svg"
   viewBox="0 0 16 16"
   height="16"
   width="16"
   id="svg1"
   version="1.1"
   xmlns:inkscape="http://www.inkscape.org/namespaces/inkscape"
   xmlns:sodipodi="http://sodipodi.sourceforge.net/DTD/sodipodi-0.dtd"
   xmlns="http://www.w3.org/2000/svg"
   xmlns:svg="http://www.w3.org/2000/svg">
  <defs
     id="defs17680" />
  <sodipodi:namedview
     inkscape:document-rotation="0"
     inkscape:current-layer="svg1"
     inkscape:window-maximized="1"
     inkscape:window-y="27"
     inkscape:window-x="0"
     inkscape:window-height="1016"
     inkscape:window-width="1920"
     inkscape:cy="12.750019"
     inkscape:cx="-6.2092814"
     inkscape:zoom="22.627417"
     showgrid="true"
     id="namedview"
     guidetolerance="10"
     gridtolerance="10"
     objecttolerance="10"
     inkscape:snap-global="false"
     pagecolor="#ffffff"
     bordercolor="#999999"
     borderopacity="1"
     inkscape:pageshadow="0"
     inkscape:pageopacity="0"
     inkscape:pagecheckerboard="0"
     inkscape:showpageshadow="0"
     inkscape:deskcolor="#d1d1d1"
     showguides="true">
    <inkscape:grid
       id="grid"
       type="xygrid"
       spacingx="1"
       spacingy="1" />
  </sodipodi:namedview>
  <g
     id="g1140">
    <path
       id="rect2902"
       style="display:inline;opacity:0;fill:#616161"
       d="M 0,0 V 16 H 16 V 0 Z" />
    <path
       id="path1217"
       style="fill:#616161;stroke-linecap:square;stroke-linejoin:round;paint-order:fill markers stroke"
       d="M 13.302734,1.9902344 11.40625,3.8867188 10.666016,4.6269531 8.2792969,7.0136719 7.046875,8.2460938 6.2460938,9.046875 5.0195312,10.273438 1.9902344,13.302734 2.6972656,14.009766 5.3378906,11.369141 C 5.8368224,12.340846 6.8468221,12.997292 8,13 9.6568525,13 11,11.656852 11,10 10.999753,8.845791 10.345085,7.8345248 9.3730469,7.3339844 L 11.539062,5.1679688 A 6,6 0 0 1 14,10 h 1 A 7,7 0 0 0 12.255859,4.4511719 L 14.009766,2.6972656 Z M 8,3 A 7,7 0 0 0 1,10 H 2 A 6,6 0 0 1 8,4 6,6 0 0 1 9.6484375,4.2304688 L 10.439453,3.4394531 A 7,7 0 0 0 8,3 Z M 8.6113281,8.0957031 C 9.4171311,8.3538877 10,9.1084755 10,10 10,11.104568 9.1045684,12 8,12 7.1084755,12 6.3538877,11.417131 6.0957031,10.611328 Z"
       class="base" />
  </g>
</svg>
