<?xml version="1.0" encoding="UTF-8" standalone="no"?>
<svg
   inkscape:version="1.2.2 (1:1.2.2+202212051552+b0a8486541)"
   sodipodi:docname="object-tweak-randomize-symbolic.svg"
   viewBox="0 0 16 16"
   height="16"
   width="16"
   id="svg1"
   version="1.1"
   xmlns:inkscape="http://www.inkscape.org/namespaces/inkscape"
   xmlns:sodipodi="http://sodipodi.sourceforge.net/DTD/sodipodi-0.dtd"
   xmlns="http://www.w3.org/2000/svg"
   xmlns:svg="http://www.w3.org/2000/svg">
  <defs
     id="defs1997">
    <inkscape:path-effect
       effect="join_type"
       id="path-effect936"
       is_visible="true"
       lpeversion="1"
       linecap_type="butt"
       line_width="1.34"
       linejoin_type="extrp_arc"
       miter_limit="100"
       attempt_force_join="true" />
    <inkscape:path-effect
       effect="join_type"
       id="path-effect941"
       is_visible="true"
       lpeversion="1"
       linecap_type="butt"
       line_width="0.67"
       linejoin_type="extrp_arc"
       miter_limit="100"
       attempt_force_join="true" />
  </defs>
  <sodipodi:namedview
     inkscape:document-rotation="0"
     inkscape:current-layer="svg1"
     inkscape:window-maximized="1"
     inkscape:window-y="27"
     inkscape:window-x="0"
     inkscape:window-height="1016"
     inkscape:window-width="1920"
     inkscape:cy="9.664689"
     inkscape:cx="-2.3808628"
     inkscape:zoom="24.780932"
     showgrid="true"
     id="namedview"
     guidetolerance="10"
     gridtolerance="10"
     objecttolerance="10"
     pagecolor="#505050"
     bordercolor="#eeeeee"
     borderopacity="1"
     inkscape:showpageshadow="0"
     inkscape:pageopacity="0"
     inkscape:pagecheckerboard="0"
     inkscape:deskcolor="#505050">
    <inkscape:grid
       id="grid"
       type="xygrid"
       spacingx="1"
       spacingy="1" />
  </sodipodi:namedview>
  <g
     id="g194">
    <path
       id="rect3783"
       style="opacity:0;fill:#616161;fill-rule:evenodd;stroke-linecap:square;stroke-linejoin:round;paint-order:fill markers stroke;stop-color:#000000"
       d="M 0,0 H 16 V 16 H 0 Z" />
    <path
       id="rect927"
       style="fill:#616161;fill-opacity:1;stroke-width:1"
       class="base"
       d="m 2,5 v 7 H 3 V 6.4140625 l 2.5,2.5 2.5,-2.5 V 12 H 9 V 5 H 8 L 5.5,7.5 3,5 Z"
       sodipodi:nodetypes="ccccccccccccc" />
    <path
       id="path945"
       style="fill:#00aaff"
       class="error"
       d="M 3,1 V 2 H 1 V 4 H 0 V 1 Z"
       sodipodi:nodetypes="ccccccc" />
    <path
       id="path209"
       style="opacity:1;fill:#616161;fill-rule:evenodd;stroke-linecap:square;stroke-linejoin:round;-inkscape-stroke:none;paint-order:fill markers stroke;stop-color:#000000"
       d="m 10,5 v 1 h 2.5 C 13.328426,6 14,6.6715737 14,7.5 14,8.3284263 13.328426,9 12.5,9 H 10 v 1 h 1.691406 l 1.154297,2 H 14 L 12.832031,9.9765625 C 14.072833,9.8102959 14.999354,8.7518919 15,7.5 15,6.1192895 13.880711,5 12.5,5 Z" />
    <path
       id="path886"
       style="fill:#00aaff"
       class="error"
       d="m 13,1 v 1 h 2 v 2 h 1 V 1 Z"
       sodipodi:nodetypes="ccccccc" />
    <path
       id="path888"
       style="fill:#00aaff"
       class="error"
       d="M 3,16 V 15 H 1 V 13 H 0 v 3 z"
       sodipodi:nodetypes="ccccccc" />
    <path
       id="path890"
       style="fill:#00aaff"
       class="error"
       d="m 13,16 v -1 h 2 v -2 h 1 v 3 z"
       sodipodi:nodetypes="ccccccc" />
  </g>
</svg>
