<?xml version="1.0" encoding="UTF-8" standalone="no"?>
<svg
   version="1.1"
   id="svg1"
   width="16"
   height="16"
   viewBox="0 0 16 16"
   sodipodi:docname="off-outline-symbolic.svg"
   inkscape:version="1.2.2 (1:1.2.2+202212051552+b0a8486541)"
   xmlns:inkscape="http://www.inkscape.org/namespaces/inkscape"
   xmlns:sodipodi="http://sodipodi.sourceforge.net/DTD/sodipodi-0.dtd"
   xmlns="http://www.w3.org/2000/svg"
   xmlns:svg="http://www.w3.org/2000/svg"
   xmlns:rdf="http://www.w3.org/1999/02/22-rdf-syntax-ns#"
   xmlns:cc="http://creativecommons.org/ns#"
   xmlns:dc="http://purl.org/dc/elements/1.1/">
  <style
     id="s0">
.success { fill:#009909; }
.warning { fill:#FF1990; }
.error { fill:#00AAFF; }
</style>
  <style
     id="s2">
@import '../../highlights.css';
</style>
  <metadata
     id="metadata7180">
    <rdf:RDF>
      <cc:Work
         rdf:about="">
        <dc:format>image/svg+xml</dc:format>
        <dc:type
           rdf:resource="http://purl.org/dc/dcmitype/StillImage" />
      </cc:Work>
    </rdf:RDF>
  </metadata>
  <defs
     id="defs7178" />
  <sodipodi:namedview
     objecttolerance="10"
     gridtolerance="10"
     guidetolerance="10"
     id="namedview"
     showgrid="true"
     inkscape:zoom="27.442823"
     inkscape:cx="-0.3279546"
     inkscape:cy="11.277994"
     inkscape:window-width="1920"
     inkscape:window-height="1016"
     inkscape:window-x="0"
     inkscape:window-y="27"
     inkscape:window-maximized="1"
     inkscape:current-layer="svg1"
     inkscape:document-rotation="0"
     pagecolor="#505050"
     bordercolor="#eeeeee"
     borderopacity="1"
     inkscape:showpageshadow="0"
     inkscape:pageopacity="0"
     inkscape:pagecheckerboard="0"
     inkscape:deskcolor="#505050">
    <inkscape:grid
       type="xygrid"
       id="grid" />
  </sodipodi:namedview>
  <path
     id="path187"
     style="opacity:1;fill:#616161;stroke-linecap:square;stroke-linejoin:round;paint-order:fill markers stroke"
     d="M 8 1 A 7 7 0 0 0 1 8 A 7 7 0 0 0 8 15 A 7 7 0 0 0 15 8 A 7 7 0 0 0 8 1 z M 8 2 A 6 6 0 0 1 14 8 A 6 6 0 0 1 8 14 A 6 6 0 0 1 2 8 A 6 6 0 0 1 8 2 z M 5.5253906 4.8183594 L 4.8183594 5.5253906 L 7.2929688 8 L 4.8183594 10.474609 L 5.5253906 11.181641 L 8 8.7070312 L 10.474609 11.181641 L 11.181641 10.474609 L 8.7070312 8 L 11.181641 5.5253906 L 10.474609 4.8183594 L 8 7.2929688 L 5.5253906 4.8183594 z "
     class="base" />
</svg>
