<?xml version="1.0" encoding="UTF-8" standalone="no"?>
<svg
   inkscape:version="1.2.2 (b0a8486541, 2022-12-01)"
   sodipodi:docname="selection-make-bitmap-copy-symbolic.svg"
   viewBox="0 0 16 16"
   height="16"
   width="16"
   id="svg1"
   version="1.1"
   xmlns:inkscape="http://www.inkscape.org/namespaces/inkscape"
   xmlns:sodipodi="http://sodipodi.sourceforge.net/DTD/sodipodi-0.dtd"
   xmlns="http://www.w3.org/2000/svg"
   xmlns:svg="http://www.w3.org/2000/svg">
  <defs
     id="defs2654" />
  <sodipodi:namedview
     inkscape:document-rotation="0"
     inkscape:current-layer="svg1"
     inkscape:window-maximized="1"
     inkscape:window-y="26"
     inkscape:window-x="0"
     inkscape:window-height="1020"
     inkscape:window-width="1920"
     inkscape:cy="10.480693"
     inkscape:cx="-2.0291568"
     inkscape:zoom="25.38"
     showgrid="true"
     id="namedview"
     guidetolerance="10"
     gridtolerance="10"
     objecttolerance="10"
     inkscape:snap-smooth-nodes="true"
     pagecolor="#505050"
     bordercolor="#eeeeee"
     borderopacity="1"
     inkscape:showpageshadow="0"
     inkscape:pageopacity="0"
     inkscape:pagecheckerboard="0"
     inkscape:deskcolor="#505050">
    <inkscape:grid
       id="grid"
       type="xygrid"
       spacingx="1"
       spacingy="1" />
  </sodipodi:namedview>
  <g
     id="g798">
    <path
       id="rect2107"
       style="opacity:0;fill:#616161;fill-opacity:1;stroke-width:0.687"
       d="M 0,0 V 16 H 16 V 0 Z" />
    <path
       id="rect4600"
       style="fill:#05a2eb;fill-opacity:1;stroke-linecap:square;stroke-linejoin:round;paint-order:fill markers stroke"
       class="error"
       d="M 3,1 V 3 H 5 V 1 Z M 5,3 V 5 H 7 V 3 Z M 7,3 H 9 V 1 H 7 Z m 2,0 v 2 h 2 V 3 Z m 2,0 h 2 V 1 h -2 z m 2,0 v 2 h 2 V 3 Z m 0,2 h -2 v 2 h 2 z m 0,2 v 2 h 2 V 7 Z m 0,2 h -2 v 2 h 2 z m 0,2 v 2 h 2 v -2 z m -2,0 H 9 v 2 h 2 z M 9,11 V 9 H 7 v 2 z M 7,11 H 5 v 2 H 7 Z M 5,11 V 9 H 3 v 2 z M 5,9 H 7 V 7 H 5 Z M 5,7 V 5 H 3 V 7 Z M 7,7 H 9 V 5 H 7 Z m 2,0 v 2 h 2 V 7 Z" />
    <path
       id="rect1403"
       style="fill:#616161;fill-opacity:1;stroke-width:0"
       d="M 0,4 V 16 H 12 V 15 H 1 V 4 Z"
       sodipodi:nodetypes="ccccccc"
       class="base" />
  </g>
</svg>
