<?xml version="1.0" encoding="UTF-8" standalone="no"?>
<svg
   inkscape:version="1.2.2 (b0a8486541, 2022-12-01)"
   sodipodi:docname="snap-nodes-smooth-symbolic.svg"
   viewBox="0 0 16 16"
   height="16"
   width="16"
   id="svg1"
   version="1.1"
   xmlns:inkscape="http://www.inkscape.org/namespaces/inkscape"
   xmlns:sodipodi="http://sodipodi.sourceforge.net/DTD/sodipodi-0.dtd"
   xmlns="http://www.w3.org/2000/svg"
   xmlns:svg="http://www.w3.org/2000/svg">
  <style
     id="s0">
   .success { fill: #009909; }
   .warning { fill: #FF1990; }
   .error   { fill: #00AAFF; }
  </style>
  <style
     id="s2"> 
     @import '../../highlights.css'; 
  </style>
  <defs
     id="defs3100" />
  <sodipodi:namedview
     inkscape:snap-smooth-nodes="true"
     inkscape:snap-to-guides="false"
     inkscape:snap-grids="true"
     inkscape:document-rotation="0"
     inkscape:current-layer="svg1"
     inkscape:window-maximized="1"
     inkscape:window-y="26"
     inkscape:window-x="0"
     inkscape:window-height="1020"
     inkscape:window-width="1920"
     inkscape:cy="7.8406292"
     inkscape:cx="13.104526"
     inkscape:zoom="27.166187"
     showgrid="true"
     id="namedview"
     guidetolerance="10"
     gridtolerance="10"
     objecttolerance="10"
     inkscape:snap-bbox="true"
     inkscape:bbox-nodes="true"
     pagecolor="#ffffff"
     bordercolor="#999999"
     borderopacity="1"
     inkscape:pageshadow="0"
     inkscape:pageopacity="0"
     inkscape:pagecheckerboard="0"
     inkscape:showpageshadow="false"
     inkscape:deskcolor="#d1d1d1">
    <inkscape:grid
       id="grid"
       type="xygrid" />
  </sodipodi:namedview>
  <g
     id="g1249">
    <path
       id="rect4472"
       style="opacity:0;fill:#616161;stroke-width:0.687"
       d="M -3e-6,0 V 16 H 16.000003 V 0 Z" />
    <path
       id="path3111"
       style="fill:#616161;fill-opacity:1;stroke-width:0;stroke-linecap:square;stroke-linejoin:round;stroke-opacity:0.395955;paint-order:fill markers stroke"
       d="M 0,15 V 12 C 0,7.5817221 3.581722,4.0000001 8,4.0000001 c 4.418278,0 8,3.581722 8,7.9999999 v 3 H 15 V 12 C 15,8.1340069 11.865993,5.0000001 8,5.0000001 4.1340068,5.0000001 1,8.1340069 1,12 v 3 z"
       sodipodi:nodetypes="csssccssscc"
       class="base" />
    <path
       id="path206"
       style="fill:#00aaff;stroke-width:0;stroke-linecap:square;stroke-linejoin:round;stroke-opacity:0.395955;paint-order:fill markers stroke"
       d="M 8,6.6660161 A 2.3333449,2.3333449 0 0 1 5.6660156,4.3339841 2.3333449,2.3333449 0 0 1 8,2.0000001 2.3333449,2.3333449 0 0 1 10.333984,4.3339841 2.3333449,2.3333449 0 0 1 8,6.6660161 Z"
       class="error" />
  </g>
</svg>
