<?xml version="1.0" encoding="UTF-8" standalone="no"?>
<svg
   inkscape:version="1.2.2 (b0a8486541, 2022-12-01)"
   sodipodi:docname="snap-nodes-symbolic.svg"
   viewBox="0 0 16 16"
   height="16"
   width="16"
   id="svg1"
   version="1.1"
   xmlns:inkscape="http://www.inkscape.org/namespaces/inkscape"
   xmlns:sodipodi="http://sodipodi.sourceforge.net/DTD/sodipodi-0.dtd"
   xmlns="http://www.w3.org/2000/svg"
   xmlns:svg="http://www.w3.org/2000/svg">
  <style
     id="s0">
   .success { fill: #009909; }
   .warning { fill: #FF1990; }
   .error   { fill: #00AAFF; }
  </style>
  <style
     id="s2"> 
     @import '../../highlights.css'; 
  </style>
  <defs
     id="defs1765" />
  <sodipodi:namedview
     inkscape:document-rotation="0"
     inkscape:current-layer="svg1"
     inkscape:window-maximized="1"
     inkscape:window-y="26"
     inkscape:window-x="0"
     inkscape:window-height="1020"
     inkscape:window-width="1920"
     inkscape:cy="10.863095"
     inkscape:cx="-1.4136905"
     inkscape:zoom="26.88"
     showgrid="true"
     id="namedview"
     guidetolerance="10"
     gridtolerance="10"
     objecttolerance="10"
     pagecolor="#ffffff"
     bordercolor="#999999"
     borderopacity="1"
     inkscape:pageshadow="0"
     inkscape:pageopacity="0"
     inkscape:pagecheckerboard="0"
     inkscape:showpageshadow="false"
     inkscape:deskcolor="#d1d1d1">
    <inkscape:grid
       id="grid"
       type="xygrid" />
  </sodipodi:namedview>
  <g
     id="g1274">
    <path
       id="rect4472"
       style="opacity:0;fill:#616161;stroke-width:0.687"
       d="M -3e-6,16 V 0 h 16.000006 v 16 z" />
    <path
       id="path3111"
       style="fill:#616161;fill-opacity:1;stroke-width:0;stroke-linecap:square;stroke-linejoin:round;stroke-opacity:0.395955;paint-order:fill markers stroke"
       d="M 0,15 V 12 C 0,7.581722 3.581722,4 8,4 c 4.418278,0 8,3.581722 8,8 v 3 H 15 V 12 C 15,8.1340068 11.865993,5 8,5 4.1340068,5 1,8.1340068 1,12 v 3 z"
       sodipodi:nodetypes="csssccssscc" />
    <path
       id="rect225"
       style="fill:#00aaff;fill-opacity:1;stroke-width:0;stroke-linecap:square;stroke-linejoin:round;stroke-opacity:0.395955;paint-order:fill markers stroke"
       class="error"
       d="M 6,7 V 4 H 3 V 5 H 0 V 2 H 3 V 3 H 6 V 2 h 4 v 1 h 3 V 2 h 3 V 5 H 13 V 4 h -3 v 3 z"
       sodipodi:nodetypes="ccccccccccccccccccccc" />
  </g>
</svg>
