<?xml version="1.0" encoding="UTF-8" standalone="no"?>
<svg
   version="1.1"
   id="svg1"
   width="16"
   height="16"
   viewBox="0 0 16 16"
   sodipodi:docname="snap-bounding-box-center-symbolic.svg"
   inkscape:version="1.2.2 (1:1.2.2+202212051552+b0a8486541)"
   xmlns:inkscape="http://www.inkscape.org/namespaces/inkscape"
   xmlns:sodipodi="http://sodipodi.sourceforge.net/DTD/sodipodi-0.dtd"
   xmlns="http://www.w3.org/2000/svg"
   xmlns:svg="http://www.w3.org/2000/svg">
  <defs
     id="defs1466" />
  <sodipodi:namedview
     inkscape:snap-bbox="true"
     objecttolerance="10"
     gridtolerance="10"
     guidetolerance="10"
     id="namedview"
     showgrid="true"
     inkscape:zoom="22.627417"
     inkscape:cx="-0.75130095"
     inkscape:cy="8.5957668"
     inkscape:window-width="1920"
     inkscape:window-height="1016"
     inkscape:window-x="0"
     inkscape:window-y="27"
     inkscape:window-maximized="1"
     inkscape:current-layer="svg1"
     inkscape:document-rotation="0"
     pagecolor="#ffffff"
     bordercolor="#999999"
     borderopacity="1"
     inkscape:pageshadow="0"
     inkscape:pageopacity="0"
     inkscape:pagecheckerboard="0"
     inkscape:showpageshadow="0"
     inkscape:deskcolor="#d1d1d1">
    <inkscape:grid
       type="xygrid"
       id="grid" />
  </sodipodi:namedview>
  <g
     id="g2236">
    <path
       inkscape:connector-curvature="0"
       id="rect22584"
       d="M 0,0 H 16.000006 V 16 H 0 Z"
       style="opacity:0;fill:none;stroke-width:0.999998" />
    <path
       id="path2007"
       style="fill:#616161;fill-opacity:1;stroke-width:0.999998"
       class="base"
       d="M 0,1 V 4 H 1 V 2 H 3 V 1 Z M 6,1 V 2 H 9 V 1 Z m 6,0 v 1 h 2 v 2 h 1 V 1 Z M 0,7 v 3 H 1 V 7 Z m 14,0 v 3 h 1 V 7 Z M 0,13 v 3 H 3 V 15 H 1 v -2 z m 14,0 v 2 h -2 v 1 h 3 v -3 z m -8,2 v 1 h 3 v -0.992188 z" />
    <path
       id="rect754"
       style="opacity:1;fill:#05a2eb;fill-opacity:1;stroke-width:0;stroke-linecap:square;stroke-linejoin:round;stroke-opacity:0.395955;paint-order:fill markers stroke"
       d="M 7,6 V 8 H 5 v 1 h 2 v 2 H 8 V 9 h 2 V 8 H 8 V 6 Z"
       sodipodi:nodetypes="ccccccccccccc"
       class="error" />
  </g>
</svg>
