<?xml version="1.0" encoding="UTF-8" standalone="no"?>
<svg
   inkscape:version="1.2.2 (1:1.2.2+202212051552+b0a8486541)"
   sodipodi:docname="symbols-symbolic.svg"
   viewBox="0 0 16 16"
   height="16"
   width="16"
   id="svg1"
   version="1.1"
   xmlns:inkscape="http://www.inkscape.org/namespaces/inkscape"
   xmlns:sodipodi="http://sodipodi.sourceforge.net/DTD/sodipodi-0.dtd"
   xmlns="http://www.w3.org/2000/svg"
   xmlns:svg="http://www.w3.org/2000/svg"
   xmlns:rdf="http://www.w3.org/1999/02/22-rdf-syntax-ns#"
   xmlns:cc="http://creativecommons.org/ns#"
   xmlns:dc="http://purl.org/dc/elements/1.1/">
  <metadata
     id="metadata1918">
    <rdf:RDF>
      <cc:Work
         rdf:about="">
        <dc:format>image/svg+xml</dc:format>
        <dc:type
           rdf:resource="http://purl.org/dc/dcmitype/StillImage" />
      </cc:Work>
    </rdf:RDF>
  </metadata>
  <defs
     id="defs1916" />
  <style
     id="s0">
.success { fill:#009909; }
.warning { fill:#FF1990; }
.error { fill:#00AAFF; }
</style>
  <style
     id="s2">
@import '../../highlights.css';
</style>
  <sodipodi:namedview
     inkscape:document-rotation="0"
     inkscape:current-layer="svg1"
     inkscape:window-maximized="1"
     inkscape:window-y="27"
     inkscape:window-x="0"
     inkscape:window-height="1016"
     inkscape:window-width="1920"
     inkscape:cy="11.419444"
     inkscape:cx="-32.425582"
     inkscape:zoom="10.639748"
     showgrid="true"
     id="namedview"
     guidetolerance="10"
     gridtolerance="10"
     objecttolerance="10"
     pagecolor="#505050"
     bordercolor="#eeeeee"
     borderopacity="1"
     inkscape:showpageshadow="0"
     inkscape:pageopacity="0"
     inkscape:pagecheckerboard="0"
     inkscape:deskcolor="#505050"
     showguides="true">
    <inkscape:grid
       id="grid"
       type="xygrid"
       spacingx="0.66667"
       spacingy="0.66667" />
  </sodipodi:namedview>
  <g
     id="g1100">
    <path
       sodipodi:nodetypes="cccccccccccccccsscccccccccccsscccccccc"
       id="symbol-shield"
       d="M 8.0312,8.5546691e-4 C 5.9057,0.01985448 3.7732,0.36233603 1.625,0.96960323 2.5509,3.3992732 1.691,7.3506615 2.2187,10.500296 c 0.5196,3.102927 3.4196,4.170968 5.8125,5.499702 2.863,-1.323024 5.4362,-2.899052 5.7812,-5.499702 C 14.2313,7.3444607 13.3448,4.2469273 14.375,0.96960323 12.2768,0.28504012 10.1567,-0.01834349 8.0312,8.5546691e-4 Z M 8.0312,2 C 8.864,2.6696639 9.5828,3.7678953 10,5.1254226 9.0819,5.8041853 8.4753,6.9387097 8.3124,8.1874429 h 0.625 c 0.058,-0.2698847 0.1209,-0.47906 0.25,-0.7809429 1.1946,-2.7906506 4.6339,-0.2304877 2.7813,1.187535 -0.056,-1.2676318 -0.959,-1.8000164 -1.75,-0.6252802 -0.049,0.072998 -0.086,0.148792 -0.125,0.2186881 H 10.625 C 11.148681,8.1874429 11.148681,9 10.625,9 H 9.8437 c 0.014,0.5705706 0.4592,1.03136 0.9063,1.03136 C 10.249,11.364584 8.8807,10.640712 8.8437,9 H 8.2812 C 8.3072,9.9448505 8.6055,10.924016 9.25,11.500081 8.9492,12.081945 8.7402,12.755917 8.0312,13 7.4755,12.797815 7.033,12.221941 6.8124,11.500081 7.4565,10.903217 7.739,9.9289509 7.75,9 H 7.1562 C 7.1192,10.640712 5.7509,11.364584 5.25,10.03136 5.6973,10.03136 6.1422,9.5705706 6.1562,9 H 5.375 C 4.8513191,9 4.8513191,8.1874429 5.375,8.1874429 H 5.9062 C 5.8672,8.1174468 5.8302,8.0417509 5.7812,7.9687548 4.9904,6.7940186 4.0872,7.3264032 4.0312,8.594035 2.1786,7.1760123 5.618,4.6158494 6.8124,7.4065 c 0.1293,0.3018829 0.1921,0.5110582 0.25,0.7809429 h 0.625 C 7.5044,6.9707088 6.8829,5.8581828 6.0312,5.1254226 6.3849,4.0220814 7.0087,2.7574596 8.0312,2 Z"
       inkscape:connector-curvature="0"
       style="stroke-width:0.999987;fill:#616161;fill-opacity:1" />
    <path
       style="opacity:0;fill:none;stroke-width:0.999987"
       d="M 0,4.3e-4 H 16 V 15.999998 H 0 Z"
       id="rect48467"
       inkscape:connector-curvature="0" />
  </g>
</svg>
