<?xml version="1.0" encoding="UTF-8" standalone="no"?>
<svg
   inkscape:version="1.2.2 (b0a8486541, 2022-12-01)"
   sodipodi:docname="tool-tweak-symbolic.svg"
   viewBox="0 0 16 16"
   height="16"
   width="16"
   id="svg1"
   version="1.1"
   xmlns:inkscape="http://www.inkscape.org/namespaces/inkscape"
   xmlns:sodipodi="http://sodipodi.sourceforge.net/DTD/sodipodi-0.dtd"
   xmlns="http://www.w3.org/2000/svg"
   xmlns:svg="http://www.w3.org/2000/svg">
  <style
     id="s0">
   .success { fill: #009909; }
   .warning { fill: #FF1990; }
   .error   { fill: #00AAFF; }
  </style>
  <style
     id="s2"> 
     @import '../../highlights.css'; 
  </style>
  <defs
     id="defs941" />
  <sodipodi:namedview
     inkscape:document-rotation="0"
     inkscape:current-layer="svg1"
     inkscape:window-maximized="1"
     inkscape:window-y="26"
     inkscape:window-x="0"
     inkscape:window-height="1020"
     inkscape:window-width="1920"
     inkscape:cy="10.78125"
     inkscape:cx="2.390625"
     inkscape:zoom="32"
     showgrid="true"
     id="namedview"
     guidetolerance="10"
     gridtolerance="10"
     objecttolerance="10"
     inkscape:snap-global="true"
     pagecolor="#ffffff"
     bordercolor="#000000"
     borderopacity="0.25"
     inkscape:showpageshadow="false"
     inkscape:pageopacity="0.0"
     inkscape:pagecheckerboard="0"
     inkscape:deskcolor="#d1d1d1">
    <inkscape:grid
       empspacing="5"
       spacingy="1"
       spacingx="1"
       dotted="false"
       id="grid"
       type="xygrid" />
  </sodipodi:namedview>
  <g
     id="g732">
    <path
       id="rect840"
       style="opacity:0;fill:#616161"
       d="M 0,0 H 16 V 16 H 0 Z" />
    <path
       id="path173"
       style="fill:#616161;opacity:0.3"
       d="M 0,2 V 7 H 1 V 3 H 5 V 2 Z m 9,0 v 1 h 4 v 4 h 1 V 2 Z m -9,9 v 5 H 5 V 15 H 1 v -4 z m 13,0 v 4 H 9 v 1 h 5 v -5 z" />
    <path
       id="rect182"
       style="fill:#616161"
       d="M 1,1 V 6 H 2 V 2 H 6 V 1 Z m 9,0 v 1 h 4 v 4 h 1 V 1 Z m -9,9 v 5 H 6 V 14 H 2 v -4 z m 13,0 v 4 h -4 v 1 h 5 v -5 z" />
  </g>
</svg>
