<?xml version="1.0" encoding="UTF-8" standalone="no"?>
<svg
   inkscape:version="1.2.2 (1:1.2.2+202212051552+b0a8486541)"
   sodipodi:docname="view-fullscreen-symbolic.svg"
   viewBox="0 0 16 16"
   height="16"
   width="16"
   id="svg1"
   version="1.1"
   xmlns:inkscape="http://www.inkscape.org/namespaces/inkscape"
   xmlns:sodipodi="http://sodipodi.sourceforge.net/DTD/sodipodi-0.dtd"
   xmlns="http://www.w3.org/2000/svg"
   xmlns:svg="http://www.w3.org/2000/svg">
  <defs
     id="defs5727">
    <inkscape:path-effect
       effect="copy_rotate"
       starting_point="10,8.0000047"
       origin="8,8.0000047"
       id="path-effect919"
       is_visible="true"
       lpeversion="1"
       method="normal"
       num_copies="4"
       starting_angle="0"
       rotation_angle="60"
       gap="-0.01"
       copies_to_360="true"
       mirror_copies="false"
       split_items="false"
       lpesatellites="" />
  </defs>
  <sodipodi:namedview
     inkscape:document-rotation="0"
     inkscape:current-layer="svg1"
     inkscape:window-maximized="1"
     inkscape:window-y="27"
     inkscape:window-x="0"
     inkscape:window-height="1016"
     inkscape:window-width="1920"
     inkscape:cy="11.058192"
     inkscape:cx="2.5693617"
     inkscape:zoom="35.222757"
     showgrid="true"
     id="namedview"
     guidetolerance="10"
     gridtolerance="10"
     objecttolerance="10"
     pagecolor="#ffffff"
     bordercolor="#999999"
     borderopacity="1"
     inkscape:pageshadow="0"
     inkscape:pageopacity="0"
     inkscape:pagecheckerboard="0"
     inkscape:showpageshadow="0"
     inkscape:deskcolor="#d1d1d1">
    <inkscape:grid
       id="grid"
       type="xygrid" />
  </sodipodi:namedview>
  <path
     id="rect1466"
     style="opacity:0.6;fill:#616161;fill-opacity:1;stroke-width:1;paint-order:fill markers stroke"
     d="m 4,4 v 8 h 8 V 4 Z"
     class="base" />
  <path
     id="path1694"
     style="fill:#616161;stroke:none;stroke-width:1px;stroke-linecap:butt;stroke-linejoin:miter;stroke-opacity:1;fill-opacity:1"
     d="M 1 1 L 1 6 L 2 6 L 2 2 L 6 2 L 6 1 L 1 1 z M 10 1 L 10 2 L 14 2 L 14 6 L 15 6 L 15 1 L 10 1 z M 1 10 L 1 15 L 6 15 L 6 14 L 2 14 L 2 10 L 1 10 z M 14 10 L 14 14 L 10 14 L 10 15 L 15 15 L 15 10 L 14 10 z "
     class="base" />
</svg>
