<?xml version="1.0" encoding="UTF-8" standalone="no"?>
<svg
   inkscape:version="1.2.2 (b0a8486541, 2022-12-01)"
   sodipodi:docname="zoom-out-symbolic.svg"
   viewBox="0 0 16 16"
   height="16"
   width="16"
   id="svg1"
   version="1.1"
   xmlns:inkscape="http://www.inkscape.org/namespaces/inkscape"
   xmlns:sodipodi="http://sodipodi.sourceforge.net/DTD/sodipodi-0.dtd"
   xmlns="http://www.w3.org/2000/svg"
   xmlns:svg="http://www.w3.org/2000/svg">
  <defs
     id="defs6321">
    <inkscape:path-effect
       effect="join_type"
       id="path-effect964"
       is_visible="true"
       lpeversion="1"
       linecap_type="butt"
       line_width="0.57"
       linejoin_type="extrp_arc"
       miter_limit="100"
       attempt_force_join="true" />
    <inkscape:path-effect
       effect="join_type"
       id="path-effect913"
       is_visible="true"
       lpeversion="1"
       linecap_type="butt"
       line_width="1.34"
       linejoin_type="extrp_arc"
       miter_limit="100"
       attempt_force_join="true" />
  </defs>
  <sodipodi:namedview
     inkscape:document-rotation="0"
     inkscape:current-layer="svg1"
     inkscape:window-maximized="1"
     inkscape:window-y="26"
     inkscape:window-x="0"
     inkscape:window-height="1020"
     inkscape:window-width="1920"
     inkscape:cy="11.817151"
     inkscape:cx="-4.5299081"
     inkscape:zoom="17.77078"
     showgrid="true"
     id="namedview"
     guidetolerance="10"
     gridtolerance="10"
     objecttolerance="10"
     pagecolor="#505050"
     bordercolor="#eeeeee"
     borderopacity="1"
     inkscape:showpageshadow="0"
     inkscape:pageopacity="0"
     inkscape:pagecheckerboard="0"
     inkscape:deskcolor="#505050">
    <inkscape:grid
       id="grid"
       type="xygrid"
       spacingx="1"
       spacingy="1" />
  </sodipodi:namedview>
  <g
     id="g918">
    <path
       id="rect3412-3"
       style="opacity:0;fill:#616161;stroke-width:1"
       d="M 1.4143456e-7,6.595858e-8 V 16 H 16 V 6.595858e-8 Z"
       class="base" />
    <path
       id="rect205"
       style="fill:#05a2eb;fill-opacity:1;stroke-width:0;stroke-linecap:square;stroke-linejoin:round;stroke-opacity:0.395955;paint-order:fill markers stroke"
       d="m 4,7 v 1 h 7 V 7 Z"
       class="error"
       sodipodi:nodetypes="ccccc" />
    <path
       id="path193"
       style="fill:#616161;stroke-width:0"
       d="M 7.5,0 A 7.5,7.5 0 0 0 0,7.5 7.5,7.5 0 0 0 7.5,15 7.5,7.5 0 0 0 12.4375,13.144531 L 15.292969,16 16,15.292969 13.144531,12.4375 A 7.5,7.5 0 0 0 15,7.5 7.5,7.5 0 0 0 7.5,0 Z m 0,1 A 6.5,6.5 0 0 1 14,7.5 6.5,6.5 0 0 1 7.5,14 6.5,6.5 0 0 1 1,7.5 6.5,6.5 0 0 1 7.5,1 Z" />
  </g>
</svg>
